<?xml version="1.0" encoding="UTF-8" standalone="no"?>
<svg
   width="655.99554"
   height="284.00781"
   viewBox="0 0 655.99554 284.00781"
   version="1.1"
   id="svg20"
   sodipodi:docname="manim_videos_logo.svg"
   inkscape:version="1.4.3 (0d15f75042, 2025-12-25)"
   xmlns:inkscape="http://www.inkscape.org/namespaces/inkscape"
   xmlns:sodipodi="http://sodipodi.sourceforge.net/DTD/sodipodi-0.dtd"
   xmlns="http://www.w3.org/2000/svg"
   xmlns:svg="http://www.w3.org/2000/svg">
  <defs
     id="defs20" />
  <sodipodi:namedview
     id="namedview20"
     pagecolor="#ffffff"
     bordercolor="#000000"
     borderopacity="0.25"
     inkscape:showpageshadow="2"
     inkscape:pageopacity="0.0"
     inkscape:pagecheckerboard="0"
     inkscape:deskcolor="#d1d1d1"
     inkscape:zoom="1.3751914"
     inkscape:cx="269.78062"
     inkscape:cy="142.16203"
     inkscape:window-width="1707"
     inkscape:window-height="888"
     inkscape:window-x="0"
     inkscape:window-y="0"
     inkscape:window-maximized="1"
     inkscape:current-layer="svg20" />
  <path
     fill="none"
     stroke-width="11.9783"
     stroke-linecap="butt"
     stroke-linejoin="miter"
     stroke="#cdcdcd"
     stroke-opacity="1"
     stroke-miterlimit="10"
     d="m 279.39007,70.210937 c 0,-15.859379 -12.88675,-28.718767 -28.77737,-28.718767 -71.94922,0 -143.89455,0 -215.839826,0 -15.894574,0 -28.7773647,12.859388 -28.7773647,28.718767 0,47.863273 0,95.722663 0,143.585933 0,15.85938 12.8827907,28.71877 28.7773647,28.71877 71.945276,0 143.890606,0 215.839826,0 15.89062,0 28.77737,-12.85939 28.77737,-28.71877 0,-47.86327 0,-95.72266 0,-143.585933 z m 0,0"
     id="path1" />
  <path
     fill-rule="nonzero"
     fill="#cdcdcd"
     fill-opacity="1"
     d="m 84.41739,37.617187 c 0,-3.808593 -3.09375,-6.890625 -6.910156,-6.890625 -4.027344,0 -8.054688,0 -12.085938,0 -3.8125,0 -6.90625,3.082032 -6.90625,6.890625 0,2.585938 0,5.167969 0,7.753907 0,3.804687 3.09375,6.890624 6.90625,6.890624 4.03125,0 8.058594,0 12.085938,0 3.816406,0 6.910156,-3.085937 6.910156,-6.890624 0,-2.585938 0,-5.167969 0,-7.753907 z m 0,0"
     id="path2" />
  <path
     fill-rule="nonzero"
     fill="#cdcdcd"
     fill-opacity="1"
     d="m 131.90177,37.617187 c 0,-3.808593 -3.09375,-6.890625 -6.91016,-6.890625 -4.02734,0 -8.05468,0 -12.08593,0 -3.8125,0 -6.90625,3.082032 -6.90625,6.890625 0,2.585938 0,5.167969 0,7.753907 0,3.804687 3.09375,6.890624 6.90625,6.890624 4.03125,0 8.05859,0 12.08593,0 3.81641,0 6.91016,-3.085937 6.91016,-6.890624 0,-2.585938 0,-5.167969 0,-7.753907 z m 0,0"
     id="path3" />
  <path
     fill-rule="nonzero"
     fill="#cdcdcd"
     fill-opacity="1"
     d="m 179.38614,37.617187 c 0,-3.808593 -3.09375,-6.890625 -6.91015,-6.890625 -4.02735,0 -8.05469,0 -12.08594,0 -3.8125,0 -6.90625,3.082032 -6.90625,6.890625 0,2.585938 0,5.167969 0,7.753907 0,3.804687 3.09375,6.890624 6.90625,6.890624 4.03125,0 8.05859,0 12.08594,0 3.8164,0 6.91015,-3.085937 6.91015,-6.890624 0,-2.585938 0,-5.167969 0,-7.753907 z m 0,0"
     id="path4" />
  <path
     fill-rule="nonzero"
     fill="#cdcdcd"
     fill-opacity="1"
     d="m 226.87052,37.617187 c 0,-3.808593 -3.09375,-6.890625 -6.91016,-6.890625 -4.02734,0 -8.05468,0 -12.08593,0 -3.8125,0 -6.90625,3.082032 -6.90625,6.890625 0,2.585938 0,5.167969 0,7.753907 0,3.804687 3.09375,6.890624 6.90625,6.890624 4.03125,0 8.05859,0 12.08593,0 3.81641,0 6.91016,-3.085937 6.91016,-6.890624 0,-2.585938 0,-5.167969 0,-7.753907 z m 0,0"
     id="path5" />
  <path
     fill-rule="nonzero"
     fill="#cdcdcd"
     fill-opacity="1"
     d="m 84.41739,238.63672 c 0,-3.80469 -3.09375,-6.89062 -6.910156,-6.89062 -4.027344,0 -8.054688,0 -12.085938,0 -3.8125,0 -6.90625,3.08593 -6.90625,6.89062 0,2.58594 0,5.16797 0,7.75391 0,3.80859 3.09375,6.89062 6.90625,6.89062 4.03125,0 8.058594,0 12.085938,0 3.816406,0 6.910156,-3.08203 6.910156,-6.89062 0,-2.58594 0,-5.16797 0,-7.75391 z m 0,0"
     id="path6" />
  <path
     fill-rule="nonzero"
     fill="#cdcdcd"
     fill-opacity="1"
     d="m 131.90177,238.63672 c 0,-3.80469 -3.09375,-6.89062 -6.91016,-6.89062 -4.02734,0 -8.05468,0 -12.08593,0 -3.8125,0 -6.90625,3.08593 -6.90625,6.89062 0,2.58594 0,5.16797 0,7.75391 0,3.80859 3.09375,6.89062 6.90625,6.89062 4.03125,0 8.05859,0 12.08593,0 3.81641,0 6.91016,-3.08203 6.91016,-6.89062 0,-2.58594 0,-5.16797 0,-7.75391 z m 0,0"
     id="path7" />
  <path
     fill-rule="nonzero"
     fill="#cdcdcd"
     fill-opacity="1"
     d="m 179.38614,238.63672 c 0,-3.80469 -3.09375,-6.89062 -6.91015,-6.89062 -4.02735,0 -8.05469,0 -12.08594,0 -3.8125,0 -6.90625,3.08593 -6.90625,6.89062 0,2.58594 0,5.16797 0,7.75391 0,3.80859 3.09375,6.89062 6.90625,6.89062 4.03125,0 8.05859,0 12.08594,0 3.8164,0 6.91015,-3.08203 6.91015,-6.89062 0,-2.58594 0,-5.16797 0,-7.75391 z m 0,0"
     id="path8" />
  <path
     fill-rule="nonzero"
     fill="#cdcdcd"
     fill-opacity="1"
     d="m 226.87052,238.63672 c 0,-3.80469 -3.09375,-6.89062 -6.91016,-6.89062 -4.02734,0 -8.05468,0 -12.08593,0 -3.8125,0 -6.90625,3.08593 -6.90625,6.89062 0,2.58594 0,5.16797 0,7.75391 0,3.80859 3.09375,6.89062 6.90625,6.89062 4.03125,0 8.05859,0 12.08593,0 3.81641,0 6.91016,-3.08203 6.91016,-6.89062 0,-2.58594 0,-5.16797 0,-7.75391 z m 0,0"
     id="path9" />
  <path
     fill-rule="nonzero"
     fill="#cdcdcd"
     fill-opacity="1"
     stroke-width="2.39565"
     stroke-linecap="butt"
     stroke-linejoin="miter"
     stroke="#cdcdcd"
     stroke-opacity="1"
     stroke-miterlimit="10"
     d="m 181.59318,147.90625 c 4.12887,-2.85547 4.12887,-8.94922 0,-11.80469 -22.17187,-15.32422 -44.33985,-30.65233 -66.50782,-45.980442 -4.77345,-3.296915 -11.29296,0.109365 -11.29296,5.902344 0,30.652338 0,61.308558 0,91.960888 0,5.79298 6.51951,9.19926 11.29296,5.90234 22.16797,-15.32811 44.33595,-30.65622 66.50782,-45.98044 z m 0,0"
     id="path10" />
  <path
     fill-rule="nonzero"
     fill="#e07a5f"
     fill-opacity="1"
     stroke-width="2.39565"
     stroke-linecap="butt"
     stroke-linejoin="miter"
     stroke="#e07a5f"
     stroke-opacity="1"
     stroke-miterlimit="10"
     d="m 571.82367,81.089854 c -13.84375,23.933586 -27.69146,47.863276 -41.53911,71.792966 27.69536,0 55.38676,0 83.07815,0 -13.84764,-23.92969 -27.69139,-47.85938 -41.53904,-71.792966 z m 0,0"
     id="path11" />
  <path
     fill-rule="nonzero"
     fill="#525893"
     fill-opacity="1"
     stroke-width="2.39565"
     stroke-linecap="butt"
     stroke-linejoin="miter"
     stroke="#525893"
     stroke-opacity="1"
     stroke-miterlimit="10"
     d="m 571.82367,33.230468 c -31.97657,0 -63.95314,0 -95.92971,0 0,31.906257 0,63.812515 0,95.722662 31.97657,0 63.95314,0 95.92971,0 0,-31.910147 0,-63.816405 0,-95.722662 z m 0,0"
     id="path12" />
  <path
     fill-rule="nonzero"
     fill="#87c2a5"
     fill-opacity="1"
     stroke-width="2.39565"
     stroke-linecap="butt"
     stroke-linejoin="miter"
     stroke="#87c2a5"
     stroke-opacity="1"
     stroke-miterlimit="10"
     d="m 523.85882,128.95313 c 0,-12.69534 -5.0508,-24.86719 -14.04688,-33.843772 -8.99608,-8.976522 -21.19533,-14.019504 -33.91798,-14.019504 -12.71875,0 -24.91799,5.042982 -33.91407,14.019504 -8.99609,8.976582 -14.04688,21.148432 -14.04688,33.843772 0,12.69531 5.05079,24.86719 14.04688,33.84377 8.99608,8.97652 21.19532,14.01951 33.91407,14.01951 12.72265,0 24.9219,-5.04299 33.91798,-14.01951 8.99608,-8.97658 14.04688,-21.14846 14.04688,-33.84377 z m 0,0"
     id="path13" />
  <path
     fill-rule="nonzero"
     fill="#cdcdcd"
     fill-opacity="1"
     d="m 415.10489,79.273437 c -10.64843,-25.3125 -21.29687,-50.625 -31.94531,-75.9375 C 381.82364,0 381.65568,0 377.14005,0 c -10.37109,0 -20.73828,0 -31.10937,0 -3.00782,0 -5.51954,0 -5.51954,3.003906 0,2.835938 3.01172,2.835938 3.84766,2.835938 2.00781,0 6.52344,0.335937 10.20313,1.667968 0,29.707032 0,59.414063 0,89.121094 0,3.503914 0,10.847664 -11.375,11.851564 -3.17579,0.33203 -3.17579,2.66797 -3.17579,2.83594 0,3.00391 2.67579,3.00391 5.6875,3.00391 8.64063,0 17.28125,0 25.92188,0 3.01172,0 5.51953,0 5.51953,-3.00391 0,-1.50391 -1.33984,-2.67187 -2.67578,-2.83594 -12.87891,-1.0039 -12.87891,-8.01172 -12.87891,-11.851564 0,-27.703125 0,-55.40625 0,-83.109375 0.0547,-0.05859 0.11328,-0.113281 0.16797,-0.167969 13.60156,32.488282 27.20313,64.976563 40.8086,97.464848 1.33593,3.00391 2.50781,3.50391 3.51171,3.50391 2.00782,0 2.50782,-1.33594 3.34375,-3.33985 13.66016,-32.54297 27.31641,-65.085939 40.97657,-97.628908 0.0547,0.05469 0.10937,0.109375 0.16797,0.167969 0,27.703125 0,55.40625 0,83.109375 0,3.503914 0,10.847664 -11.375,11.851564 -3.17579,0.33203 -3.17579,2.66797 -3.17579,2.83594 0,3.00391 2.67579,3.00391 5.6875,3.00391 14.88282,0 29.76954,0 44.65235,0 3.01172,0 5.51953,0 5.51953,-3.00391 0,-1.50391 -1.33594,-2.67187 -2.67578,-2.83594 -12.87891,-1.0039 -12.87891,-8.01172 -12.87891,-11.851564 0,-26.3125 0,-52.625 0,-78.9375 0,-3.507812 0,-10.847656 11.375,-11.851562 1.67188,-0.164063 3.17578,-1 3.17578,-2.835938 C 490.86661,0 488.3588,0 485.34708,0 c -10.75781,0 -21.51953,0 -32.27734,0 -4.34766,0 -4.6836,0 -6.1875,3.503906 -10.59375,25.257812 -21.1836,50.511719 -31.77735,75.769531 z m -5.01953,3.003907 c 1.33985,2.835937 1.50782,3.003906 3.51563,3.671874 -2.45313,5.894532 -4.90625,11.792969 -7.35938,17.691412 -0.11328,0 -0.22265,0 -0.33593,0 C 393.19474,73.375 380.4838,43.113281 367.77286,12.851562 c -0.83593,-2.171875 -2.17187,-5.007812 -4.51562,-7.011718 4.85156,0 9.69922,0 14.55078,0 10.76172,25.480468 21.51953,50.957031 32.27734,76.4375 z m -50.50781,26.203126 c -0.94531,0 -1.89453,0 -2.84375,0 0.33594,-0.5039 0.67188,-1.0039 1.00391,-1.33593 0.16797,-0.16797 0.16797,-0.33594 0.33593,-0.5 0.5,0.60937 1.00391,1.22265 1.50391,1.83593 z M 456.41349,5.839844 c 5.91015,0 11.82031,0 17.73047,0 -3.67969,4.171874 -3.67969,8.511718 -3.67969,11.515624 0,26.535157 0,53.070313 0,79.609376 0,3.003902 0,7.339846 3.84766,11.515626 -7.19532,0 -14.38672,0 -21.57813,0 3.67969,-4.17578 3.67969,-8.511724 3.67969,-11.515626 0,-30.375 0,-60.75 0,-91.125 z m 0,0"
     id="path14" />
  <path
     fill-rule="nonzero"
     fill="#cdcdcd"
     fill-opacity="1"
     d="m 377.15177,206.65235 c 0.62891,-1.5 2.51172,-5.88282 7.77734,-6.38282 0.75391,0 2.63672,-0.25 2.63672,-2.125 0,-2.2539 -1.88281,-2.2539 -4.14062,-2.2539 -6.73047,0 -13.46485,0 -20.19532,0 -2.25781,0 -4.14062,0 -4.14062,2.2539 0,1.875 1.88281,2 2.63672,2.125 1.8789,0.25 4.51562,0.75391 4.51562,7.26172 0,7.38282 -4.01562,19.27344 -6.14843,25.28125 -0.87891,2.50391 -0.87891,2.75391 -10.03516,25.66016 -2.25781,-4.62891 -21.44922,-46.1875 -21.44922,-54.32031 0,-0.87891 2.88672,-3.50782 7.52734,-3.88282 2.00782,-0.125 2.38282,-1.5 2.38282,-2.125 0,-2.2539 -1.88282,-2.2539 -4.14063,-2.2539 -10.95312,0 -21.90625,0 -32.86328,0 -2.25781,0 -4.14062,0 -4.14062,2.2539 0,1.75 1.63281,2 2.63671,2.125 4.13672,0.625 6.77344,6.51172 7.02344,6.88672 11.2461,24.73828 22.4961,49.48047 33.74219,74.22266 0.87891,1.87891 1.50391,2.62891 2.63281,2.62891 1.38281,0 1.75781,-0.625 2.51172,-2.62891 10.41016,-24.90625 20.82031,-49.81641 31.23047,-74.72656 z m -1.25391,-6.38282 c -1.5039,1.62891 -2.13281,3.12891 -3.00781,5.13282 -0.50391,1.3789 -1.88281,4.63281 -2.51172,6.00781 0.125,-1.125 0.25391,-2.75391 0.25391,-3.87891 0,-1.6289 -0.12891,-5.00781 -1.50781,-7.26172 2.25781,0 4.51562,0 6.77343,0 z m -64.34765,6.13282 c -1.12891,-2.375 -3.38672,-5.88282 -3.63672,-6.13282 5.9375,0 11.875,0 17.8125,0 -0.62891,0.5 -1.63281,1.12891 -1.63281,3.75782 0,8.50781 16.05468,43.55859 23.95703,60.95703 -1.54688,3.79687 -3.09375,7.58984 -4.64063,11.38672 -10.61719,-23.32032 -21.23828,-46.64453 -31.85937,-69.96875 z m 0,0"
     id="path15" />
  <path
     fill-rule="nonzero"
     fill="#cdcdcd"
     fill-opacity="1"
     d="m 410.0463,226.30469 c -5.85547,0.46094 -11.70703,0.91797 -17.5625,1.37891 0,1.29297 0,2.58593 0,3.8789 8.15234,0 9.28125,0.75 9.28125,6.88282 0,11.22656 0,22.44921 0,33.67187 0,5.63281 -1.37891,5.63281 -9.78125,5.63281 0,1.29297 0,2.58594 0,3.87891 4.01172,-0.125 10.78516,-0.375 13.79688,-0.375 4.39062,0 8.78125,0.25 13.04687,0.375 0,-1.29297 0,-2.58594 0,-3.87891 -8.28125,0 -8.78125,-0.625 -8.78125,-5.50781 0,-15.3125 0,-30.625 0,-45.9375 z m 0.5,-21.77734 c 0,-4.00782 -3.13672,-6.63672 -6.64844,-6.63672 -3.88672,0 -6.64843,3.38281 -6.64843,6.63672 0,3.3789 2.76171,6.63281 6.64843,6.63281 3.51172,0 6.64844,-2.62891 6.64844,-6.63281 z m 0,0"
     id="path16" />
  <path
     fill-rule="nonzero"
     fill="#cdcdcd"
     fill-opacity="1"
     d="m 470.35099,274.7461 c 0,2.7539 0,5.50781 0,8.26172 6.14844,-0.46094 12.29297,-0.91797 18.4414,-1.37891 0,-1.29297 0,-2.58594 0,-3.87891 -8.78125,0 -9.78515,-0.875 -9.78515,-7.00781 0,-25.32812 0,-50.65234 0,-75.98047 -6.01953,0.46094 -12.04297,0.91797 -18.0625,1.37891 0,1.29297 0,2.58594 0,3.8789 8.78125,0 9.78515,0.875 9.78515,7.01172 0,9.01172 0,18.02344 0,27.03516 -3.64062,-4.50781 -9.03125,-7.76172 -15.80859,-7.76172 -14.80078,0 -27.96875,12.26563 -27.96875,28.41406 0,15.89453 12.29297,28.28907 26.58984,28.28907 8.02735,0 13.67188,-4.25782 16.8086,-8.26172 z m 0,-33.54688 c 0,8.55469 0,17.10938 0,25.66016 0,2.2539 0,2.5039 -1.37891,4.63281 -3.76172,6.00781 -9.40625,8.76172 -14.80078,8.76172 -5.64453,0 -10.16016,-3.25391 -13.17187,-8.01172 -3.26172,-5.13281 -3.63672,-12.26562 -3.63672,-17.39844 0,-4.63281 0.25,-12.14062 3.88672,-17.77343 2.63671,-3.87891 7.40234,-8.01172 14.17578,-8.01172 4.39062,0 9.66015,1.8789 13.54687,7.51172 1.37891,2.125 1.37891,2.3789 1.37891,4.6289 z m 0,0"
     id="path17" />
  <path
     fill-rule="nonzero"
     fill="#cdcdcd"
     fill-opacity="1"
     d="m 506.4213,250.08594 c 0.75391,-18.64844 11.28906,-21.77734 15.55469,-21.77734 12.91797,0 14.17187,16.89843 14.17187,21.77734 -9.90625,0 -19.8164,0 -29.72656,0 z m -0.125,2.62891 c 11.66406,0 23.33203,0 34.99609,0 2.76172,0 3.13672,0 3.13672,-2.62891 0,-12.39062 -6.77343,-24.53125 -22.45312,-24.53125 -14.55078,0 -26.08985,12.89063 -26.08985,28.53906 0,16.77344 13.16797,28.91407 27.59375,28.91407 15.30469,0 20.94922,-13.89454 20.94922,-16.27344 0,-1.25 -1.0039,-1.5 -1.63281,-1.5 -1.12891,0 -1.37891,0.75 -1.62891,1.75 -4.39062,12.89453 -15.67968,12.89453 -16.93359,12.89453 -6.27344,0 -11.28906,-3.75781 -14.17578,-8.38672 -3.76172,-6.00781 -3.76172,-14.26953 -3.76172,-18.77734 z m 0,0"
     id="path18" />
  <path
     fill-rule="nonzero"
     fill="#cdcdcd"
     fill-opacity="1"
     d="m 607.20255,254.84375 c 0,-16.01953 -12.54297,-29.28906 -27.72266,-29.28906 -15.67968,0 -27.84375,13.64453 -27.84375,29.28906 0,16.14844 13.04297,28.16407 27.71875,28.16407 15.17969,0 27.84766,-12.26563 27.84766,-28.16407 z m -27.72266,25.03516 c -5.39453,0 -10.91015,-2.62891 -14.29687,-8.38672 -3.13672,-5.50781 -3.13672,-13.14453 -3.13672,-17.64844 0,-4.88281 0,-11.64062 3.00781,-17.14843 3.38672,-5.75782 9.28516,-8.38672 14.30078,-8.38672 5.51954,0 10.91407,2.7539 14.17579,8.13672 3.26171,5.38281 3.26171,12.64062 3.26171,17.39843 0,4.50391 0,11.26563 -2.76171,16.76953 -2.75782,5.63282 -8.27735,9.26563 -14.55079,9.26563 z m 0,0"
     id="path19" />
  <path
     fill-rule="nonzero"
     fill="#cdcdcd"
     fill-opacity="1"
     d="m 636.92911,257.34766 c 2.76172,0.5 13.04688,2.50391 13.04688,11.51562 0,6.38282 -4.39063,11.39063 -14.17578,11.39063 -10.53516,0 -15.05078,-7.13672 -17.4336,-17.77344 -0.375,-1.6289 -0.5039,-2.1289 -1.75781,-2.1289 -1.62891,0 -1.62891,0.875 -1.62891,3.1289 0,5.50781 0,11.01563 0,16.52344 0,2.125 0,3.00391 1.37891,3.00391 0.62891,0 0.75391,-0.125 3.13672,-2.50391 0.25,-0.25 0.25,-0.5 2.50781,-2.87891 5.51953,5.25782 11.16406,5.38282 13.79688,5.38282 14.42578,0 20.19531,-8.38672 20.19531,-17.39844 0,-6.63672 -3.76172,-10.39063 -5.26563,-11.89063 -4.14062,-4.00781 -9.03125,-5.00781 -14.30078,-6.00781 -7.02343,-1.37891 -15.42968,-3.00391 -15.42968,-10.26562 0,-4.37891 3.26171,-9.51172 14.05078,-9.51172 13.79687,0 14.42187,11.26562 14.67578,15.14453 0.125,1.125 1.2539,1.125 1.5039,1.125 1.63282,0 1.63282,-0.625 1.63282,-3.00391 0,-4.21094 0,-8.42578 0,-12.64062 0,-2.12891 0,-3.00391 -1.38282,-3.00391 -0.625,0 -0.8789,0 -2.50781,1.5 -0.375,0.50391 -1.6289,1.62891 -2.13281,2.00391 -4.76563,-3.50391 -9.91016,-3.50391 -11.78906,-3.50391 -15.30469,0 -20.07032,8.38672 -20.07032,15.39453 0,4.38281 2.00782,7.88672 5.39454,10.64063 4.01171,3.2539 7.52343,4.0039 16.55468,5.75781 z m 0,0"
     id="path20" />
</svg>
